<?xml version="1.0" encoding="UTF-8" standalone="no"?>
<!-- Uploaded to: SVG Repo, www.svgrepo.com, Generator: SVG Repo Mixer Tools -->

<svg
   fill="#000000"
   height="800px"
   width="800px"
   version="1.1"
   id="Capa_1"
   viewBox="0 0 395 395"
   xml:space="preserve"
   sodipodi:docname="gun-sign-svgrepo-com.svg"
   inkscape:version="1.4.2 (ebf0e94, 2025-05-08)"
   xmlns:inkscape="http://www.inkscape.org/namespaces/inkscape"
   xmlns:sodipodi="http://sodipodi.sourceforge.net/DTD/sodipodi-0.dtd"
   xmlns="http://www.w3.org/2000/svg"
   xmlns:svg="http://www.w3.org/2000/svg"><defs
   id="defs2" /><sodipodi:namedview
   id="namedview2"
   pagecolor="#ffffff"
   bordercolor="#000000"
   borderopacity="0.25"
   inkscape:showpageshadow="2"
   inkscape:pageopacity="0.0"
   inkscape:pagecheckerboard="0"
   inkscape:deskcolor="#d1d1d1"
   showguides="true"
   inkscape:zoom="1.01375"
   inkscape:cx="399.50678"
   inkscape:cy="400"
   inkscape:window-width="1850"
   inkscape:window-height="1016"
   inkscape:window-x="70"
   inkscape:window-y="27"
   inkscape:window-maximized="1"
   inkscape:current-layer="g2" />
<g
   id="g2"
   style="fill:#696969;fill-opacity:1">
	
	<path
   d="M333.006,111.278c-0.602-4.667-4.58-8.275-9.41-8.275c-4.813,0-8.779,3.584-9.402,8.227H87.662   c-7.868,0-14.246,6.378-14.246,14.246v44.159c0,5.545,3.175,10.339,7.801,12.693l-31.775,95.683   c-1.442,4.343-0.711,9.114,1.968,12.825c2.678,3.711,6.976,5.91,11.552,5.91h58.819c6.138,0,11.585-3.932,13.52-9.756   l15.894-47.857c0.355,0.054,0.71,0.109,1.074,0.137c0.232,0.018,1.424,0.101,3.355,0.101c8.67,0,32.248-1.67,50.939-18.385   c10.582-9.463,17.744-21.897,21.429-37.104h25.42c7.868,0,14.246-6.378,14.246-14.246v-6.692h64.382   c7.868,0,14.246-6.378,14.246-14.246v-23.221C346.285,117.934,340.421,111.777,333.006,111.278z M187.753,199.583   c-8.847,8.017-20.167,10.382-27.096,11.05l8.884-26.752h28.662C195.766,190.232,192.277,195.482,187.753,199.583z"
   id="path2"
   style="fill:#696969;fill-opacity:1" />
</g>
</svg>
