<?xml version="1.0" encoding="UTF-8" standalone="no"?>
<!-- Uploaded to: SVG Repo, www.svgrepo.com, Generator: SVG Repo Mixer Tools -->

<svg
   fill="#000000"
   width="800px"
   height="800px"
   viewBox="0 0 32 32"
   version="1.1"
   id="svg1"
   sodipodi:docname="money-bill-wave-solid-svgrepo-com.svg"
   inkscape:version="1.4.2 (ebf0e94, 2025-05-08)"
   xmlns:inkscape="http://www.inkscape.org/namespaces/inkscape"
   xmlns:sodipodi="http://sodipodi.sourceforge.net/DTD/sodipodi-0.dtd"
   xmlns="http://www.w3.org/2000/svg"
   xmlns:svg="http://www.w3.org/2000/svg">
  <defs
     id="defs1" />
  <sodipodi:namedview
     id="namedview1"
     pagecolor="#ffffff"
     bordercolor="#000000"
     borderopacity="0.25"
     inkscape:showpageshadow="2"
     inkscape:pageopacity="0.0"
     inkscape:pagecheckerboard="0"
     inkscape:deskcolor="#d1d1d1"
     inkscape:zoom="1.01375"
     inkscape:cx="399.50678"
     inkscape:cy="400"
     inkscape:window-width="1850"
     inkscape:window-height="1016"
     inkscape:window-x="70"
     inkscape:window-y="27"
     inkscape:window-maximized="1"
     inkscape:current-layer="svg1" />
  <path
     d="m 22.853516,6.0078125 c -2.689395,0.073801 -4.774688,0.8045156 -6.804688,1.5097656 -2.171,0.754 -4.220594,1.4651407 -7.0585936,1.4941407 -1.897,0.03 -3.7970625,-0.2973594 -5.6640625,-0.9433594 L 2,7.609375 v 17.082031 l 0.6660156,0.236328 c 1.739,0.615 3.5171094,0.969688 5.2871094,1.054688 0.281,0.013 0.5561719,0.01953 0.8261719,0.01953 3.0130001,0 5.3196411,-0.799266 7.5566411,-1.572265 2.357999,-0.816 4.582187,-1.58636 7.617187,-1.44336 1.574,0.075 3.158891,0.393359 4.712891,0.94336 L 30,24.402344 V 7.3144531 L 29.341797,7.0742188 c -1.725,-0.625 -3.506875,-0.9796407 -5.296875,-1.0566407 -0.4105,-0.01825 -0.807207,-0.020309 -1.191406,-0.00977 z m 0.05469,1.9863281 c 0.338928,-0.010492 0.687578,-0.010344 1.048828,0.00391 0.373964,0.016223 0.748166,0.050108 1.121094,0.09375 C 25.344924,9.1855072 26.323979,10 27.5,10 27.671,10 27.838,9.9812188 28,9.9492188 V 19.050781 C 27.838,19.018781 27.671,19 27.5,19 c -1.235799,0 -2.254942,0.898153 -2.457031,2.076172 -0.332077,-0.03478 -0.664426,-0.05838 -0.996094,-0.07422 -3.415,-0.15 -5.933187,0.708734 -8.367187,1.552735 -2.361,0.817999 -4.59786,1.591265 -7.6308599,1.447265 C 7.6729998,23.983858 7.2965195,23.94781 6.9199219,23.902344 6.650967,22.811694 5.67385,22 4.5,22 4.329,22 4.162,22.018781 4,22.050781 V 12.949219 C 4.162,12.981219 4.329,13 4.5,13 5.7444763,13 6.7671584,12.088686 6.9589844,10.898438 7.6438975,10.970039 8.3294829,11.011452 9.0117188,11 12.176719,10.968 14.478078,10.166578 16.705078,9.3925781 c 1.960875,-0.6825 3.830631,-1.3249922 6.203125,-1.3984375 z M 16,11 c -2.206,0 -4,2.243 -4,5 0,2.757 1.794,5 4,5 2.206,0 4,-2.243 4,-5 0,-2.757 -1.794,-5 -4,-5 z m 0,2 c 1.084,0 2,1.374 2,3 0,1.626 -0.916,3 -2,3 -1.084,0 -2,-1.374 -2,-3 0,-1.626 0.916,-3 2,-3 z m 7.5,0 c -1.999999,0 -1.999999,3 0,3 1.999999,0 1.999999,-3 0,-3 z m -15,3 c -1.9999991,0 -1.9999991,3 0,3 1.999999,0 1.999999,-3 0,-3 z"
     id="path1"
     sodipodi:nodetypes="scccccccscccccccssscsccscccccsccscccsssssssssssssssssss"
     style="fill:#2e7500;fill-opacity:1" />
</svg>
