<?xml version="1.0" encoding="iso-8859-1"?>
<!-- Uploaded to: SVG Repo, www.svgrepo.com, Generator: SVG Repo Mixer Tools -->
<svg fill="#000000" height="800px" width="800px" version="1.1" id="Capa_1" xmlns="http://www.w3.org/2000/svg" xmlns:xlink="http://www.w3.org/1999/xlink" 
	 viewBox="0 0 489.9 489.9" xml:space="preserve">
<g>
	<g>
		<path d="M244.95,0C109.75,0,0.55,93.6,0.55,208c0,22.9,3.7,68.4,55.1,69.7c30.9,2.8,102.2-30.5,168.5-37.3v207.9h-92.6
			c-11.4,0-20.8,9.4-20.8,20.8s9.4,20.8,20.8,20.8h226.8c11.4,0,21.8-9.4,21.8-20.8s-9.4-20.8-20.8-20.8h-93.6v-208
			c64.2,6.2,134.2,39.7,168.5,37.5c24.9-1.6,55.1-12.5,55.1-69.7C489.35,93.7,380.15,0,244.95,0z M75.35,234.8
			c-12.8,2.8-24,3.5-29-0.8c-2.2-1.9-5.2-8.3-5.2-26c0-91.5,91.5-166.4,203.9-166.4s203.9,74.9,202.8,166.4
			c0,29.1-6.2,29.1-14.6,29.1c-13.5,0-33.3-6.2-57.2-13.5c-36.4-11.4-81.1-25-131.1-25C181.65,198,132.95,218.4,75.35,234.8z"/>
		<path d="M270.95,139.4h-13.5c-11.4,0-20.8,9.4-20.8,20.8c0,11.4,9.4,20.8,20.8,20.8h13.5c11.4,0,20.8-9.4,20.8-20.8
			C291.75,148.8,282.35,139.4,270.95,139.4z"/>
		<path d="M353.15,111.3c-10.4-5.2-21.8-1-27,9.4s-1,21.8,9.4,27c5.2,2.1,9.4,6.2,11.4,10.4c3.1,6.2,12.4,13.3,28.1,9.4
			c10.4-6.2,13.5-17.7,8.3-28.1C376.05,126.9,365.65,117.6,353.15,111.3z"/>
	</g>
</g>
</svg>